<?xml version="1.0" encoding="iso-8859-1"?>
<!-- Generator: Adobe Illustrator 19.0.0, SVG Export Plug-In . SVG Version: 6.00 Build 0)  -->
<svg version="1.1" id="Capa_1" xmlns="http://www.w3.org/2000/svg" xmlns:xlink="http://www.w3.org/1999/xlink" x="0px" y="0px"
	 viewBox="0 0 480.245 480.245" style="enable-background:new 0 0 480.245 480.245;" xml:space="preserve">
<linearGradient id="SVGID_1_" gradientUnits="userSpaceOnUse" x1="-26.838" y1="568.7916" x2="-26.838" y2="624.8746" gradientTransform="matrix(8 0 0 -8 454.8267 5035.1997)">
	<stop  offset="0" style="stop-color:#006DF0"/>
	<stop  offset="1" style="stop-color:#00E7F0"/>
</linearGradient>
<path style="fill:url(#SVGID_1_);" d="M376.025,146.467c-8.125-0.014-16.223,0.925-24.128,2.8
	c-2.825-57.324-51.586-101.504-108.91-98.678c-24.448,1.205-47.686,11.001-65.618,27.662C130.97,64.147,81.923,90.328,67.82,136.727
	c-4.617,15.188-5.029,31.344-1.195,46.748c-7.401,8.799-12.802,19.101-15.832,30.192C12.796,225.39-8.504,265.696,3.219,303.693
	c9.313,30.186,37.215,50.776,68.806,50.774h304c2.968,0,5.848-0.088,8.664-0.344c57.248-4.666,99.873-54.858,95.207-112.105
	C475.489,187.953,430.269,146.355,376.025,146.467z M152.025,90.467c4.368-0.002,8.727,0.389,13.024,1.168
	c-0.96,1.264-1.808,2.584-2.704,3.88c-0.56,0.8-1.16,1.6-1.696,2.4c-1.68,2.592-3.256,5.24-4.696,7.96
	c-0.184,0.352-0.328,0.72-0.512,1.072c-1.232,2.4-2.368,4.843-3.408,7.328c-0.4,0.96-0.736,1.936-1.112,2.912
	c-0.736,1.936-1.44,3.88-2.056,5.856c-0.352,1.112-0.664,2.224-0.968,3.344c-0.533,1.92-1.013,3.861-1.44,5.824
	c-0.24,1.128-0.488,2.256-0.688,3.392c-0.384,2.104-0.672,4.224-0.928,6.352c-0.12,1-0.272,1.992-0.36,3
	c-0.28,3.168-0.456,6.312-0.456,9.512v1.6c-5.265-1.073-10.626-1.609-16-1.6c-2.512,0-5.008,0.152-7.496,0.392
	c-0.8,0.072-1.52,0.184-2.28,0.28c-1.76,0.216-3.512,0.488-5.24,0.8c-0.8,0.152-1.6,0.312-2.4,0.496
	c-1.84,0.408-3.664,0.904-5.472,1.448c-0.584,0.168-1.168,0.312-1.744,0.496c-2.32,0.76-4.608,1.6-6.848,2.584
	c-0.608,0.256-1.184,0.56-1.784,0.84c-1.648,0.752-3.272,1.552-4.872,2.4c-0.8,0.416-1.536,0.864-2.296,1.304
	c-1.44,0.848-2.856,1.752-4.24,2.688c-0.696,0.464-1.392,0.92-2.072,1.408c-0.264,0.192-0.544,0.36-0.8,0.552
	c-0.286-2.553-0.438-5.119-0.456-7.688C80.069,122.72,112.279,90.511,152.025,90.467z M383.297,338.179
	c-2.4,0.216-4.8,0.288-7.272,0.288h-304c-30.928-0.021-55.983-25.109-55.963-56.037c0.017-25.987,17.91-48.548,43.211-54.483
	c3.046-0.705,5.403-3.121,6.032-6.184c6.114-29.798,32.301-51.216,62.72-51.296c7.49-0.046,14.924,1.291,21.928,3.944
	c4.123,1.587,8.753-0.469,10.34-4.592c0.485-1.26,0.643-2.622,0.46-3.96c-0.502-3.776-0.746-7.583-0.728-11.392
	c-0.014-5.745,0.522-11.477,1.6-17.12c8.14-41.251,44.354-70.96,86.4-70.88c48.577,0.057,87.943,39.423,88,88
	c0,1.728-0.072,3.448-0.152,5.168c-0.195,4.414,3.225,8.151,7.639,8.346c1.042,0.046,2.084-0.112,3.065-0.466
	c9.449-3.376,19.414-5.084,29.448-5.048c48.601-0.088,88.072,39.239,88.16,87.84C464.268,296.211,429.052,334.469,383.297,338.179z"
	/>
<g>
	
		<linearGradient id="SVGID_2_" gradientUnits="userSpaceOnUse" x1="-37.8502" y1="568.7916" x2="-37.8502" y2="624.8746" gradientTransform="matrix(8 0 0 -8 454.8267 5035.1997)">
		<stop  offset="0" style="stop-color:#006DF0"/>
		<stop  offset="1" style="stop-color:#00E7F0"/>
	</linearGradient>
	<path style="fill:url(#SVGID_2_);" d="M152.025,58.467c-4.418,0-8-3.582-8-8v-32c0-4.418,3.582-8,8-8s8,3.582,8,8v32
		C160.025,54.885,156.443,58.467,152.025,58.467z"/>
	
		<linearGradient id="SVGID_3_" gradientUnits="userSpaceOnUse" x1="-44.121" y1="568.7916" x2="-44.121" y2="624.8746" gradientTransform="matrix(8 0 0 -8 454.8267 5035.1997)">
		<stop  offset="0" style="stop-color:#006DF0"/>
		<stop  offset="1" style="stop-color:#00E7F0"/>
	</linearGradient>
	<path style="fill:url(#SVGID_3_);" d="M107.945,68.867c-3.238,0.004-6.16-1.945-7.4-4.936l-12.24-29.6
		c-1.572-4.129,0.502-8.751,4.631-10.322c3.961-1.507,8.41,0.336,10.145,4.202l12.248,29.6c1.688,4.083-0.254,8.762-4.337,10.449
		C110.025,68.659,108.99,68.865,107.945,68.867z"/>
	
		<linearGradient id="SVGID_4_" gradientUnits="userSpaceOnUse" x1="-49.3775" y1="568.7916" x2="-49.3775" y2="624.8746" gradientTransform="matrix(8 0 0 -8 454.8267 5035.1997)">
		<stop  offset="0" style="stop-color:#006DF0"/>
		<stop  offset="1" style="stop-color:#00E7F0"/>
	</linearGradient>
	<path style="fill:url(#SVGID_4_);" d="M71.177,95.267c-2.122,0-4.156-0.844-5.656-2.344L42.889,70.299
		c-3.178-3.069-3.266-8.134-0.197-11.312c3.069-3.178,8.134-3.266,11.312-0.197c0.067,0.064,0.132,0.13,0.197,0.197l22.624,22.632
		c3.124,3.125,3.123,8.19-0.002,11.314c-1.5,1.499-3.534,2.342-5.654,2.342L71.177,95.267z"/>
	
		<linearGradient id="SVGID_5_" gradientUnits="userSpaceOnUse" x1="-52.7844" y1="568.7916" x2="-52.7844" y2="624.8746" gradientTransform="matrix(8 0 0 -8 454.8267 5035.1997)">
		<stop  offset="0" style="stop-color:#006DF0"/>
		<stop  offset="1" style="stop-color:#00E7F0"/>
	</linearGradient>
	<path style="fill:url(#SVGID_5_);" d="M47.321,133.771c-1.049,0.001-2.087-0.206-3.056-0.608l-29.6-12.248
		c-4.082-1.701-6.013-6.39-4.312-10.472c1.701-4.082,6.39-6.013,10.472-4.312l29.6,12.248c4.082,1.69,6.022,6.369,4.333,10.451
		c-1.238,2.992-4.158,4.943-7.397,4.941H47.321z"/>
	
		<linearGradient id="SVGID_6_" gradientUnits="userSpaceOnUse" x1="-53.8502" y1="568.7916" x2="-53.8502" y2="624.8746" gradientTransform="matrix(8 0 0 -8 454.8267 5035.1997)">
		<stop  offset="0" style="stop-color:#006DF0"/>
		<stop  offset="1" style="stop-color:#00E7F0"/>
	</linearGradient>
	<path style="fill:url(#SVGID_6_);" d="M40.025,178.467h-32c-4.418,0-8-3.582-8-8s3.582-8,8-8h32c4.418,0,8,3.582,8,8
		S44.443,178.467,40.025,178.467z"/>
	
		<linearGradient id="SVGID_7_" gradientUnits="userSpaceOnUse" x1="-28.8563" y1="568.7916" x2="-28.8563" y2="624.8746" gradientTransform="matrix(8 0 0 -8 454.8267 5035.1997)">
		<stop  offset="0" style="stop-color:#006DF0"/>
		<stop  offset="1" style="stop-color:#00E7F0"/>
	</linearGradient>
	<path style="fill:url(#SVGID_7_);" d="M212.713,413.779c-4.418-0.001-7.999-3.583-7.998-8.002c0-2.121,0.843-4.154,2.342-5.654
		l22.624-22.624c3.178-3.07,8.242-2.982,11.312,0.196c2.995,3.1,2.995,8.016,0,11.116l-22.624,22.624
		C216.869,412.935,214.834,413.778,212.713,413.779L212.713,413.779z"/>
	
		<linearGradient id="SVGID_8_" gradientUnits="userSpaceOnUse" x1="-34.844" y1="568.7916" x2="-34.844" y2="624.8746" gradientTransform="matrix(8 0 0 -8 454.8267 5035.1997)">
		<stop  offset="0" style="stop-color:#006DF0"/>
		<stop  offset="1" style="stop-color:#00E7F0"/>
	</linearGradient>
	<path style="fill:url(#SVGID_8_);" d="M164.713,413.779c-4.418-0.001-7.999-3.583-7.998-8.002c0-2.121,0.843-4.154,2.342-5.654
		l22.624-22.624c3.07-3.178,8.134-3.266,11.312-0.196c3.178,3.07,3.266,8.134,0.196,11.312c-0.064,0.067-0.13,0.132-0.196,0.196
		l-22.624,22.624C168.869,412.935,166.834,413.778,164.713,413.779L164.713,413.779z"/>
	
		<linearGradient id="SVGID_9_" gradientUnits="userSpaceOnUse" x1="-40.844" y1="568.7916" x2="-40.844" y2="624.8746" gradientTransform="matrix(8 0 0 -8 454.8267 5035.1997)">
		<stop  offset="0" style="stop-color:#006DF0"/>
		<stop  offset="1" style="stop-color:#00E7F0"/>
	</linearGradient>
	<path style="fill:url(#SVGID_9_);" d="M116.713,413.779c-4.418-0.001-7.999-3.583-7.998-8.002c0-2.121,0.843-4.154,2.342-5.654
		l22.624-22.624c3.07-3.178,8.134-3.266,11.312-0.196c3.178,3.07,3.266,8.134,0.196,11.312c-0.064,0.067-0.13,0.132-0.196,0.196
		l-22.624,22.624C120.869,412.935,118.834,413.778,116.713,413.779L116.713,413.779z"/>
	
		<linearGradient id="SVGID_10_" gradientUnits="userSpaceOnUse" x1="-22.8563" y1="568.7916" x2="-22.8563" y2="624.8746" gradientTransform="matrix(8 0 0 -8 454.8267 5035.1997)">
		<stop  offset="0" style="stop-color:#006DF0"/>
		<stop  offset="1" style="stop-color:#00E7F0"/>
	</linearGradient>
	<path style="fill:url(#SVGID_10_);" d="M260.713,413.779c-4.418-0.001-7.999-3.583-7.998-8.002c0-2.121,0.843-4.154,2.342-5.654
		l22.624-22.624c3.178-3.07,8.242-2.982,11.312,0.196c2.995,3.1,2.995,8.016,0,11.116l-22.624,22.624
		C264.869,412.935,262.834,413.778,260.713,413.779z"/>
	
		<linearGradient id="SVGID_11_" gradientUnits="userSpaceOnUse" x1="-16.8563" y1="568.7916" x2="-16.8563" y2="624.8746" gradientTransform="matrix(8 0 0 -8 454.8267 5035.1997)">
		<stop  offset="0" style="stop-color:#006DF0"/>
		<stop  offset="1" style="stop-color:#00E7F0"/>
	</linearGradient>
	<path style="fill:url(#SVGID_11_);" d="M308.713,413.779c-4.418-0.001-7.999-3.583-7.998-8.002c0-2.121,0.843-4.154,2.342-5.654
		l22.624-22.624c3.178-3.07,8.242-2.982,11.312,0.196c2.995,3.1,2.995,8.016,0,11.116l-22.624,22.624
		C312.869,412.935,310.834,413.778,308.713,413.779z"/>
	
		<linearGradient id="SVGID_12_" gradientUnits="userSpaceOnUse" x1="-35.844" y1="568.7916" x2="-35.844" y2="624.8746" gradientTransform="matrix(8 0 0 -8 454.8267 5035.1997)">
		<stop  offset="0" style="stop-color:#006DF0"/>
		<stop  offset="1" style="stop-color:#00E7F0"/>
	</linearGradient>
	<path style="fill:url(#SVGID_12_);" d="M156.713,469.779c-4.418-0.001-7.999-3.583-7.998-8.002c0-2.121,0.843-4.154,2.342-5.654
		l22.624-22.624c3.07-3.178,8.134-3.266,11.312-0.196c3.178,3.07,3.266,8.134,0.196,11.312c-0.064,0.067-0.13,0.132-0.196,0.196
		l-22.624,22.624C160.869,468.935,158.834,469.778,156.713,469.779L156.713,469.779z"/>
	
		<linearGradient id="SVGID_13_" gradientUnits="userSpaceOnUse" x1="-41.844" y1="568.7916" x2="-41.844" y2="624.8746" gradientTransform="matrix(8 0 0 -8 454.8267 5035.1997)">
		<stop  offset="0" style="stop-color:#006DF0"/>
		<stop  offset="1" style="stop-color:#00E7F0"/>
	</linearGradient>
	<path style="fill:url(#SVGID_13_);" d="M108.713,469.779c-4.418-0.001-7.999-3.583-7.998-8.002c0-2.121,0.843-4.154,2.342-5.654
		l22.624-22.624c3.07-3.178,8.134-3.266,11.312-0.196c3.178,3.07,3.266,8.134,0.196,11.312c-0.064,0.067-0.13,0.132-0.196,0.196
		l-22.624,22.624C112.869,468.935,110.834,469.778,108.713,469.779z"/>
	
		<linearGradient id="SVGID_14_" gradientUnits="userSpaceOnUse" x1="-47.844" y1="568.7916" x2="-47.844" y2="624.8746" gradientTransform="matrix(8 0 0 -8 454.8267 5035.1997)">
		<stop  offset="0" style="stop-color:#006DF0"/>
		<stop  offset="1" style="stop-color:#00E7F0"/>
	</linearGradient>
	<path style="fill:url(#SVGID_14_);" d="M60.713,469.779c-4.418-0.001-7.999-3.583-7.998-8.002c0-2.121,0.843-4.154,2.342-5.654
		l22.624-22.624c3.069-3.178,8.134-3.266,11.312-0.196c3.178,3.07,3.266,8.134,0.196,11.312c-0.064,0.067-0.13,0.132-0.196,0.196
		l-22.624,22.624C64.869,468.935,62.834,469.778,60.713,469.779z"/>
	
		<linearGradient id="SVGID_15_" gradientUnits="userSpaceOnUse" x1="-29.844" y1="568.7916" x2="-29.844" y2="624.8746" gradientTransform="matrix(8 0 0 -8 454.8267 5035.1997)">
		<stop  offset="0" style="stop-color:#006DF0"/>
		<stop  offset="1" style="stop-color:#00E7F0"/>
	</linearGradient>
	<path style="fill:url(#SVGID_15_);" d="M204.713,469.779c-4.418-0.001-7.999-3.583-7.998-8.002c0-2.121,0.843-4.154,2.342-5.654
		l22.624-22.624c3.07-3.178,8.134-3.266,11.312-0.196c3.178,3.07,3.266,8.134,0.196,11.312c-0.064,0.067-0.13,0.132-0.196,0.196
		l-22.624,22.624C208.869,468.935,206.834,469.778,204.713,469.779L204.713,469.779z"/>
	
		<linearGradient id="SVGID_16_" gradientUnits="userSpaceOnUse" x1="-23.8563" y1="568.7916" x2="-23.8563" y2="624.8746" gradientTransform="matrix(8 0 0 -8 454.8267 5035.1997)">
		<stop  offset="0" style="stop-color:#006DF0"/>
		<stop  offset="1" style="stop-color:#00E7F0"/>
	</linearGradient>
	<path style="fill:url(#SVGID_16_);" d="M252.713,469.779c-4.418-0.001-7.999-3.583-7.998-8.002c0-2.121,0.843-4.154,2.342-5.654
		l22.624-22.624c3.178-3.07,8.242-2.982,11.312,0.196c2.995,3.1,2.995,8.016,0,11.116l-22.624,22.624
		C256.869,468.935,254.834,469.778,252.713,469.779z"/>
</g>
<g>
</g>
<g>
</g>
<g>
</g>
<g>
</g>
<g>
</g>
<g>
</g>
<g>
</g>
<g>
</g>
<g>
</g>
<g>
</g>
<g>
</g>
<g>
</g>
<g>
</g>
<g>
</g>
<g>
</g>
</svg>
