<?xml version="1.0" encoding="iso-8859-1"?>
<!-- Generator: Adobe Illustrator 18.0.0, SVG Export Plug-In . SVG Version: 6.00 Build 0)  -->
<!DOCTYPE svg PUBLIC "-//W3C//DTD SVG 1.1//EN" "http://www.w3.org/Graphics/SVG/1.1/DTD/svg11.dtd">
<svg version="1.1" id="Capa_1" xmlns="http://www.w3.org/2000/svg" xmlns:xlink="http://www.w3.org/1999/xlink" x="0px" y="0px"
	 viewBox="0 0 254.99 254.99" style="enable-background:new 0 0 254.99 254.99;" xml:space="preserve">
<g>
	<path d="M160.017,154.538V32.522C160.017,14.589,145.427,0,127.495,0S94.973,14.589,94.973,32.522v122.021
		c-14.86,10.775-23.566,28.39-22.937,46.885c1.003,29.456,25.814,53.483,55.31,53.562c0.051,0,0.1,0,0.151,0
		c14.795,0,28.707-5.75,39.185-16.201c10.515-10.487,16.305-24.44,16.305-39.291C182.986,181.499,174.471,164.97,160.017,154.538z
		 M156.795,228.876c-7.835,7.815-18.236,12.114-29.299,12.114c-0.037,0-0.076,0-0.113,0c-22.054-0.059-40.605-18.02-41.354-40.039
		c-0.505-14.832,7.019-28.908,19.635-36.734c2.058-1.276,3.31-3.526,3.31-5.948V32.522c0-10.213,8.309-18.522,18.522-18.522
		s18.522,8.309,18.522,18.522v125.747c0,2.422,1.252,4.672,3.31,5.948c12.31,7.637,19.66,20.826,19.66,35.281
		C168.986,210.602,164.657,221.036,156.795,228.876z"/>
	<path d="M134.301,176.978V34.617c0-3.759-3.047-6.806-6.806-6.806s-6.806,3.047-6.806,6.806v142.361
		c-9.672,2.92-16.718,11.895-16.718,22.52c0,12.992,10.532,23.524,23.524,23.524s23.524-10.532,23.524-23.524
		C151.019,188.874,143.973,179.898,134.301,176.978z"/>
</g>
<g>
</g>
<g>
</g>
<g>
</g>
<g>
</g>
<g>
</g>
<g>
</g>
<g>
</g>
<g>
</g>
<g>
</g>
<g>
</g>
<g>
</g>
<g>
</g>
<g>
</g>
<g>
</g>
<g>
</g>
</svg>
