<?xml version="1.0" encoding="utf-8"?>
<!-- Generator: Adobe Illustrator 24.1.1, SVG Export Plug-In . SVG Version: 6.00 Build 0)  -->
<svg version="1.1" id="Layer_1" xmlns="http://www.w3.org/2000/svg" xmlns:xlink="http://www.w3.org/1999/xlink" x="0px" y="0px"
	 viewBox="0 0 512 512" style="enable-background:new 0 0 512 512;" xml:space="preserve">
<g id="XMLID_1_">
	<path id="XMLID_3_" d="M439.8,320.1c19.9,0,38.8-8.1,51.5-20.8c12.6-12.6,20.8-30.7,20.8-51.5c0-19.9-7.2-39.7-19.9-55.1
		c-12.6-15.4-30.7-25.3-51.5-25.3v8.1h8.1c0-47.9-19.9-90.3-52.4-120.1S320.6,7.7,272.7,7.7c-42.4,0-82.2,13.5-113.8,37
		s-55.1,56.9-62.3,97.5l8.1,1.8v-8.1c0,0-9,0-16.3,0c-25.3,0-47.9,11.7-63.2,29.8S0,207.2,0,232.5c0,25.3,9,47,25.3,63.2
		S63.2,321,88.5,321v-16.3c-20.8,0-38.8-8.1-51.5-20.8c-12.6-12.6-20.8-30.7-20.8-51.5s8.1-41.5,20.8-56
		c12.6-14.4,30.7-24.4,51.5-24.4c6.3,0,16.3,0,16.3,0h6.3l0.9-6.3c7.2-36.1,27.1-66.8,56-87.6c28.9-21.7,65.9-33.4,103.8-33.4
		c43.3,0,84,16.3,112.9,43.3c28.9,27.1,47,65,47,108.4v7.2h8.1c15.4,0,29.8,7.2,39.7,19.9c9.9,11.7,16.3,28,16.3,44.2
		c0,16.3-6.3,29.8-16.3,39.7c-9.9,9.9-23.5,16.3-39.7,16.3L439.8,320.1L439.8,320.1z"/>
	<path id="XMLID_4_" d="M207.7,456.5c0,26.2,21.7,47.9,47.9,47.9c26.2,0,47.9-21.7,47.9-47.9c0-26.2-21.7-47.9-47.9-47.9H15.4v16.3
		h240.2c9,0,17.2,3.6,22.6,9c5.4,5.4,9,13.5,9,22.6c0,9-3.6,17.2-9,22.6c-5.4,5.4-13.5,9-22.6,9c-9,0-17.2-3.6-22.6-9
		c-5.4-5.4-9-13.5-9-22.6H207.7L207.7,456.5z"/>
	<path id="XMLID_5_" d="M327.8,328.2c0-9,3.6-17.2,9-22.6c5.4-5.4,13.5-9,22.6-9c9,0,17.2,3.6,22.6,9c5.4,5.4,9,13.5,9,22.6
		c0,9-3.6,17.2-9,22.6c-5.4,5.4-13.5,9-22.6,9H31.6v16.3h328.7c26.2,0,47.9-21.7,47.9-47.9c0-26.2-21.7-47.9-47.9-47.9
		s-47.9,21.7-47.9,47.9H327.8L327.8,328.2z"/>
</g>
</svg>
